<?xml version="1.0" encoding="utf-8"?>
<!-- Generator: Adobe Illustrator 27.1.0, SVG Export Plug-In . SVG Version: 6.00 Build 0)  -->
<svg version="1.1" id="Layer_1" xmlns="http://www.w3.org/2000/svg" xmlns:xlink="http://www.w3.org/1999/xlink" x="0px" y="0px"
	 viewBox="0 0 452.6 152.8" style="enable-background:new 0 0 452.6 152.8;" xml:space="preserve">
<style type="text/css">
	.st0{fill:url(#SVGID_1_);}
</style>
<g>
	<path d="M91.3,71.8c0,3.3-0.8,6.8-2.4,10.6s-4.1,7.5-7.6,11.2c-3.4,3.7-7.8,6.6-13.2,8.9c-5.3,2.3-11.6,3.4-18.7,3.4
		c-5.4,0-10.3-0.5-14.7-1.5c-4.4-1-8.4-2.6-12-4.8c-3.6-2.2-6.9-5-9.9-8.6c-2.7-3.2-5-6.8-6.9-10.8S2.4,72,1.4,67.4
		C0.5,62.9,0,58.1,0,53.1c0-8.2,1.2-15.6,3.6-22.1C6,24.4,9.4,18.8,13.9,14.2s9.7-8.2,15.7-10.6S42,0,48.8,0c8.3,0,15.7,1.6,22.1,5
		s11.4,7.4,14.9,12.2C89.3,22.1,91,26.7,91,31c0,2.4-0.8,4.5-2.5,6.3S84.8,40,82.4,40c-2.7,0-4.6-0.6-6-1.9s-2.8-3.4-4.4-6.5
		c-2.7-5.1-5.9-8.9-9.5-11.4c-3.7-2.5-8.2-3.8-13.5-3.8c-8.5,0-15.3,3.2-20.4,9.7S21,41.8,21,53.8c0,8,1.1,14.6,3.4,19.9
		s5.4,9.2,9.5,11.8s8.9,3.9,14.4,3.9c6,0,11-1.5,15.1-4.4c4.1-3,7.2-7.3,9.3-13c0.9-2.7,2-4.9,3.3-6.6c1.3-1.7,3.4-2.5,6.3-2.5
		c2.5,0,4.6,0.9,6.3,2.6C90.4,67.1,91.3,69.2,91.3,71.8L91.3,71.8z"/>
	<path d="M129.2,11.6v28.3c2.4-2.8,4.8-5,7.1-6.6c2.3-1.6,4.9-2.9,7.6-3.7c2.8-0.8,5.8-1.2,9-1.2c4.8,0,9.1,1,12.9,3.1
		s6.7,5,8.8,8.9c1.4,2.3,2.3,4.8,2.7,7.7s0.7,6.1,0.7,9.7v36.5c0,3.8-0.9,6.7-2.6,8.7c-1.8,2-4.1,2.9-6.9,2.9
		c-6.3,0-9.4-3.9-9.4-11.6V62.1c0-6.1-0.9-10.8-2.7-14.1c-1.8-3.3-5.3-4.9-10.3-4.9c-3.4,0-6.5,1-9.2,2.9s-4.8,4.6-6.1,7.9
		c-1,2.8-1.5,7.9-1.5,15.2v25.2c0,3.8-0.9,6.7-2.6,8.6c-1.7,2-4.1,3-7.1,3c-6.3,0-9.4-3.9-9.4-11.6V11.6c0-3.9,0.8-6.8,2.5-8.7
		s4-2.9,6.9-2.9s5.4,1,7.1,2.9S129.2,7.8,129.2,11.6z"/>
	<path d="M207.6,19.5c-2.6,0-4.9-0.8-6.8-2.4c-1.9-1.6-2.8-3.9-2.8-6.9c0-2.7,1-4.9,2.9-6.7c1.9-1.8,4.2-2.6,6.7-2.6
		s4.6,0.8,6.6,2.4s2.9,3.9,2.9,6.9s-0.9,5.2-2.8,6.9C212.4,18.6,210.1,19.5,207.6,19.5z M217,39.2v55.1c0,3.8-0.9,6.7-2.7,8.7
		c-1.8,2-4.1,2.9-6.9,2.9s-5.1-1-6.8-3S198,98,198,94.3V39.7c0-3.8,0.9-6.6,2.6-8.5s4-2.9,6.8-2.9s5.1,1,6.9,2.9
		C216.1,33.1,217,35.8,217,39.2z"/>
	<path d="M255.6,78.3v15.9c0,3.9-0.9,6.8-2.7,8.7c-1.8,1.9-4.1,2.9-6.9,2.9s-5-1-6.8-2.9c-1.8-2-2.6-4.8-2.6-8.7V41.2
		c0-8.6,3.1-12.9,9.3-12.9c3.2,0,5.4,1,6.8,3c1.4,2,2.2,5,2.3,8.9c2.3-3.9,4.6-6.9,7-8.9s5.6-3,9.6-3s7.9,1,11.7,3s5.7,4.7,5.7,8
		c0,2.3-0.8,4.2-2.4,5.8c-1.6,1.5-3.3,2.3-5.2,2.3c-0.7,0-2.4-0.4-5.1-1.3c-2.7-0.9-5-1.3-7.1-1.3c-2.8,0-5.1,0.7-6.8,2.2
		s-3.1,3.6-4.1,6.5c-1,2.9-1.6,6.3-2,10.3C255.8,67.8,255.6,72.6,255.6,78.3L255.6,78.3z"/>
	<path d="M402.6,38.9v2.3c3.4-4.4,7-7.7,11-9.7s8.5-3.1,13.7-3.1s9.5,1.1,13.5,3.3c4,2.2,6.9,5.3,8.9,9.3c1.3,2.3,2.1,4.8,2.4,7.5
		s0.6,6.1,0.6,10.3v35.5c0,3.8-0.9,6.7-2.6,8.7c-1.8,2-4,2.9-6.8,2.9s-5.1-1-6.9-3s-2.6-4.9-2.6-8.6V62.5c0-6.3-0.9-11.1-2.6-14.4
		s-5.2-5-10.4-5c-3.4,0-6.5,1-9.3,3c-2.8,2-4.8,4.8-6.1,8.3c-0.9,2.8-1.4,8.1-1.4,15.9v23.9c0,3.9-0.9,6.8-2.7,8.7s-4.1,2.9-7,2.9
		s-5-1-6.8-3s-2.6-4.9-2.6-8.6V39.2c0-3.6,0.8-6.3,2.4-8.1s3.8-2.7,6.5-2.7c1.7,0,3.2,0.4,4.5,1.2s2.4,2,3.2,3.6
		C402.2,34.7,402.6,36.6,402.6,38.9z"/>
</g>
<g>
	<path d="M48.1,118.8h-7.4c-0.8,0-1.3,0.1-1.5,0.3s-0.3,0.7-0.3,1.6v25.9l0,1c0.1,2.1,1.2,3.3,3.5,3.7c0.6,0.1,0.9,0.3,0.9,0.6
		c0,0.4-0.2,0.6-0.7,0.6c-0.2,0-0.6-0.1-1.3-0.2c-0.3-0.1-1.1-0.1-2.4-0.1l-1.9,0l-2.1,0c-0.7,0-1.4,0-1.9,0.1
		c-1,0.1-1.6,0.2-1.8,0.2c-0.5,0-0.8-0.2-0.8-0.6c0-0.3,0.3-0.4,0.9-0.5c1.4-0.2,2.3-0.6,2.7-1.1s0.7-1.6,0.7-3.1V121l0-0.7
		c0-0.6-0.1-1-0.3-1.2s-0.6-0.3-1.3-0.3h-7c-1.4,0-2.5,0.3-3.1,0.9s-1.1,1.7-1.5,3.2c-0.2,0.7-0.4,1-0.7,1c-0.3,0-0.5-0.2-0.5-0.7
		c0-0.4,0.1-1,0.3-2c0.3-1.3,0.4-2.3,0.4-3.1s0.1-1.3,0.3-1.6c0.2-0.2,0.6-0.4,1.2-0.4h28.4c1,0,1.5,0.1,1.8,0.3s0.3,0.8,0.3,1.9
		s0,1.8,0.1,2.3c0.1,0.6,0.1,1,0.2,1.3c0,0.5-0.2,0.8-0.5,0.8c-0.3,0-0.5-0.2-0.6-0.8c-0.2-1.2-0.6-2.1-1.1-2.4
		C50.6,119,49.6,118.8,48.1,118.8L48.1,118.8z"/>
	<path d="M66.5,132.4H82c0.8,0,1.3-0.1,1.5-0.2s0.3-0.5,0.3-0.9v-9c0-1.8-0.2-3.1-0.7-3.9c-0.5-0.8-1.3-1.3-2.6-1.6
		c-0.5-0.1-0.8-0.3-0.8-0.6c0-0.3,0.2-0.4,0.7-0.4c0.4,0,1,0,1.8,0.1c1.2,0.1,2.4,0.2,3.7,0.2c1.9,0,3.2-0.1,4-0.2
		c0.5-0.1,0.8-0.1,1-0.1c0.4,0,0.6,0.2,0.6,0.5c0,0.3-0.2,0.4-0.6,0.5l-1.1,0.2c-0.5,0.1-1,0.5-1.4,1.2c-0.4,0.7-0.6,1.4-0.6,2.3
		v25.5c0,1.9,0.3,3.2,0.8,3.9s1.5,1.2,3,1.3c0.5,0.1,0.8,0.2,0.8,0.5c0,0.4-0.2,0.6-0.7,0.6c-0.3,0-0.8,0-1.4-0.1
		c-0.4-0.1-1.3-0.1-2.6-0.1l-1.9,0l-2,0.1c-0.3,0-0.7,0-1.3,0.1c-1.1,0.1-1.7,0.1-1.8,0.1c-0.4,0-0.7-0.1-0.6-0.5
		c0-0.3,0.3-0.5,0.9-0.6c1.8-0.3,2.8-1.8,2.8-4.5l0-1v-9.7c0-0.8-0.1-1.3-0.2-1.4c-0.2-0.1-0.7-0.2-1.6-0.2H66.5
		c-1,0-1.6,0.1-1.9,0.3c-0.2,0.2-0.4,0.7-0.4,1.5v9.7c0,1.8,0.3,3.1,0.9,3.9s1.7,1.2,3.2,1.4c0.7,0.1,1,0.3,1,0.7
		c0,0.4-0.2,0.5-0.8,0.5c-0.2,0-0.7,0-1.3-0.1c-0.5-0.1-1.5-0.1-3.2-0.1l-2.2,0l-1.7,0.1c-0.4,0-1,0-1.7,0.1
		c-0.9,0.1-1.5,0.1-1.7,0.1c-0.4,0-0.7-0.2-0.7-0.5c0-0.3,0.2-0.5,0.7-0.6l1.3-0.3c0.8-0.2,1.3-0.8,1.6-1.7c0.3-1,0.4-2.7,0.4-5.2
		v-22.7c0-1.5-0.3-2.6-0.9-3.3c-0.6-0.7-1.6-1.2-3.1-1.4c-0.5-0.1-0.8-0.3-0.8-0.6c0-0.4,0.2-0.5,0.7-0.5c0.3,0,0.9,0.1,1.6,0.2
		c1.4,0.2,3,0.2,4.8,0.2c1.2,0,2.4-0.1,3.5-0.2c0.5-0.1,0.8-0.1,1.1-0.1c0.5,0,0.8,0.2,0.8,0.5c0,0.3-0.2,0.5-0.7,0.6
		c-1.2,0.3-2,0.7-2.4,1.3c-0.4,0.6-0.6,1.5-0.6,2.8v9.5c0,1,0.1,1.6,0.3,1.8C64.8,132.3,65.4,132.4,66.5,132.4L66.5,132.4z"/>
	<path d="M105.5,120.2v10.6c0,0.8,0.1,1.3,0.2,1.5s0.6,0.2,1.4,0.2h4.1c1.8,0,3.3-0.1,4.4-0.3c0.9-0.2,1.6-0.4,1.8-0.8
		c0.3-0.3,0.5-1.1,0.8-2.2c0.1-0.4,0.3-0.6,0.7-0.6c0.3,0,0.5,0.2,0.5,0.7c0,0.1,0,0.3,0,0.6c-0.2,1.7-0.2,3.2-0.2,4.7
		c0,1.1,0.1,2.1,0.2,3.2c0,0.4,0.1,0.6,0.1,0.8c0,0.4-0.2,0.7-0.5,0.7c-0.4,0-0.6-0.2-0.7-0.6l-0.2-0.7c-0.2-1.2-0.6-2-1.3-2.4
		c-0.6-0.4-1.7-0.6-3.2-0.6h-5.8c-0.9,0-1.4,0.1-1.7,0.3s-0.4,0.5-0.4,1.1l0,0.9v9.7c0,1.5,0.3,2.4,0.8,2.8c0.5,0.4,1.9,0.6,4.1,0.6
		c6.9,0,11.3-1.6,13.3-4.7c0.2-0.3,0.4-0.5,0.6-0.5c0.3,0,0.5,0.2,0.5,0.7c0,1.1-0.6,2.5-1.9,4.1c-1.6,1.9-3.5,2.8-5.8,2.8
		c-0.5,0-1.2,0-2.1-0.1c-3.4-0.3-6.1-0.5-8.3-0.5c-3.1,0-5.2,0.1-6.5,0.3c-0.7,0.1-1.1,0.2-1.4,0.2c-0.6,0-0.8-0.2-0.8-0.6
		c0-0.3,0.2-0.5,0.7-0.6l1-0.3c1.3-0.4,1.9-1.6,1.9-3.7l0-1.7v-22.3c0-2.5-0.3-4.2-0.8-5.1s-1.6-1.3-3.2-1.3c-0.5,0-0.8-0.2-0.8-0.5
		c0-0.5,0.4-0.7,1.2-0.7c0.4,0,1,0,1.8,0.1c2.5,0.3,5.5,0.4,9.1,0.4c2.1,0,4,0,5.7-0.1l3.7-0.2c1,0,1.7-0.1,1.9-0.1
		c0.5-0.1,0.8-0.1,1.1-0.1c0.6,0,0.9,0.2,0.9,0.8c0,0.2,0,0.4-0.1,0.6c-0.1,0.2-0.1,0.9-0.2,2.1l-0.1,1.6c-0.1,1-0.2,1.7-0.3,1.9
		s-0.3,0.4-0.6,0.4c-0.3,0-0.5-0.2-0.5-0.8v-0.7c0-0.6-0.1-1.1-0.3-1.6c-0.3-0.8-1-1.3-2-1.6s-2.9-0.4-5.6-0.4h-4.1
		c-1.1,0-1.8,0.1-2.1,0.4C105.7,118.6,105.6,119.2,105.5,120.2L105.5,120.2z"/>
	<path d="M146.7,134l7.3,10.7l0.8,1.3c2.2,3.3,4.3,5,6.2,5.1l0.8,0.1c0.3,0,0.5,0.1,0.4,0.4c0,0.3-0.4,0.5-1.2,0.7s-1.6,0.3-2.6,0.3
		c-1.6,0-3-0.4-4.3-1.3s-2.5-2.3-3.8-4.3l-6.6-10l-0.4-0.6c-0.4-0.7-1.1-1.1-2.1-1.1H138l-0.6,0.1c-0.2,0.1-0.3,0.4-0.3,0.9v8.2
		l0,1.1c0,1.5,0.1,2.6,0.2,3.1s0.5,1.1,1.1,1.5c0.8,0.6,1.9,1,3.5,1.1c0.6,0.1,1,0.3,1,0.6c0,0.3-0.2,0.5-0.9,0.5
		c-0.2,0-0.8,0-1.6-0.1c-0.7-0.1-1.8-0.1-3.4-0.1l-2.5,0l-1.4,0c-0.6,0-1.3,0-2.2,0.1c-0.7,0.1-1.2,0.1-1.4,0.1
		c-0.4,0-0.7-0.2-0.7-0.5c0-0.3,0.2-0.4,0.7-0.5c1.4-0.3,2.3-0.9,2.8-1.9c0.4-1,0.7-3,0.7-6v-19l-0.1-2.8c0-2.8-1-4.3-2.9-4.6
		l-1.2-0.2c-0.6-0.1-0.8-0.3-0.8-0.6c0-0.4,0.3-0.5,0.9-0.5c0.1,0,0.8,0,1.9,0.1c0.6,0.1,1.4,0.1,2.4,0.1c0.8,0,2.2-0.1,4.1-0.2
		c1.4-0.1,2.6-0.1,3.7-0.1c4,0,7.1,0.8,9.1,2.3s3.1,3.8,3.1,6.8C153.2,128.8,151.1,131.8,146.7,134L146.7,134z M139,133.4h3
		c2.3,0,4.1-0.6,5.4-1.9c1.3-1.3,2-3,2-5.2c0-2.6-0.9-4.7-2.7-6.3s-4.1-2.5-6.9-2.5c-1,0-1.8,0.2-2.1,0.5c-0.4,0.3-0.6,1-0.6,1.9
		l0,0.9v10.7c0,0.8,0.1,1.4,0.3,1.6S138.2,133.4,139,133.4L139,133.4z"/>
	<path d="M183.3,138.3h-9.5c-1.3,0-2.1,0.1-2.4,0.3c-0.3,0.2-0.7,0.9-1.3,2.1l-1.7,3.9c-0.8,1.8-1.2,3.1-1.2,4s0.2,1.4,0.6,1.8
		c0.4,0.4,1.2,0.7,2.4,0.9c0.5,0.1,0.8,0.3,0.8,0.6c0,0.3-0.2,0.4-0.7,0.4c-0.2,0-0.5,0-0.9,0l-2.5-0.1c-0.8,0-1.8-0.1-2.9-0.1
		c-0.5,0-0.9,0-1.2,0c-0.9,0.1-1.4,0.1-1.5,0.1c-0.5,0-0.7-0.2-0.7-0.5c0-0.3,0.1-0.5,0.4-0.6l1-0.3c0.4-0.1,0.8-0.5,1.4-1.3
		c0.6-0.8,1.1-1.5,1.5-2.3l0.8-1.7l13.6-30.1c0.2-0.5,0.5-0.8,0.8-0.8s0.5,0.3,0.7,0.8l11.3,29.1l0.6,1.4c0.8,2.1,1.5,3.4,2.1,4
		s1.6,0.9,3.3,1.2c0.5,0.1,0.8,0.3,0.8,0.6c0,0.3-0.3,0.4-0.7,0.4c-0.2,0-0.5,0-1-0.1c-0.9-0.1-2.5-0.1-4.9-0.1s-4,0.1-4.6,0.2
		c-0.4,0.1-0.6,0.1-0.8,0.1c-0.5,0-0.7-0.2-0.7-0.5c0-0.3,0.2-0.5,0.7-0.5l0.8-0.2c0.9-0.2,1.3-0.8,1.3-1.8c0-0.9-0.5-2.8-1.6-5.6
		l-1.3-3.5c-0.4-1-0.7-1.5-0.9-1.7C184.9,138.4,184.3,138.3,183.3,138.3L183.3,138.3z M183.6,134.1l-4.1-10.4l-0.2-0.6
		c-0.2-0.6-0.4-0.8-0.7-0.9c-0.1,0-0.3,0.2-0.4,0.5l-5.1,11.4c-0.2,0.5-0.3,0.8-0.3,1c0,0.5,0.4,0.7,1.2,0.7l0.7,0h8
		c0.9,0,1.3-0.2,1.3-0.7c0-0.1,0-0.3-0.1-0.6L183.6,134.1L183.6,134.1z"/>
	<path d="M208.6,120.2v22l0,2.6l0.1,2.2c0.2,2.1,1,3.4,2.4,3.7c1,0.3,1.7,0.4,2.2,0.4c0.5,0,0.8,0.2,0.8,0.5c0,0.4-0.3,0.7-0.9,0.7
		c-0.3,0-0.9,0-1.8-0.1c-0.6,0-1.5-0.1-2.7-0.1l-1.9-0.1l-2.1,0c-1,0-1.8,0-2.4,0.1c-0.7,0.1-1.2,0.1-1.5,0.1
		c-0.5,0-0.7-0.2-0.7-0.5s0.3-0.5,0.9-0.6c1.4-0.2,2.3-1,2.8-2.3c0.5-1.3,0.8-3.7,0.8-7.2v-16c0-3.7-0.2-6-0.7-7
		c-0.4-1-1.5-1.6-3.3-1.8c-0.5,0-0.7-0.2-0.7-0.5c0-0.4,0.4-0.6,1-0.6c0.3,0,0.8,0,1.3,0.1c1.1,0.2,2,0.2,2.7,0.2
		c1.1,0,2.8-0.1,4.9-0.3c1.1-0.1,2-0.1,2.7-0.1c3.7,0,6.7,0.9,8.9,2.7c2.3,1.8,3.4,4.1,3.4,6.9c0,3.4-1.4,6.2-4.2,8.1
		c-2.1,1.5-4.3,2.2-6.7,2.2c-1.1,0-2.1-0.1-3.1-0.4c-0.9-0.2-1.4-0.5-1.3-0.8c0-0.2,0.2-0.3,0.5-0.3c0.1,0,0.3,0,0.5,0.1
		c0.4,0.1,1.1,0.2,1.9,0.2c2.5,0,4.6-0.7,6.1-2.1c1.5-1.4,2.3-3.2,2.3-5.6c0-2.7-1-4.9-3-6.6c-2-1.8-4.5-2.6-7.6-2.6
		c-0.7,0-1.2,0.1-1.4,0.4c-0.3,0.3-0.4,0.8-0.4,1.5L208.6,120.2L208.6,120.2z"/>
	<path d="M237.1,120.2v10.6c0,0.8,0.1,1.3,0.2,1.5s0.6,0.2,1.4,0.2h4.1c1.9,0,3.3-0.1,4.4-0.3c0.9-0.2,1.6-0.4,1.9-0.8
		s0.5-1.1,0.8-2.2c0.1-0.4,0.3-0.6,0.7-0.6c0.3,0,0.5,0.2,0.5,0.7c0,0.1,0,0.3,0,0.6c-0.2,1.7-0.2,3.2-0.2,4.7
		c0,1.1,0.1,2.1,0.2,3.2c0,0.4,0.1,0.6,0.1,0.8c0,0.4-0.2,0.7-0.5,0.7c-0.4,0-0.6-0.2-0.7-0.6l-0.2-0.7c-0.2-1.2-0.6-2-1.3-2.4
		c-0.6-0.4-1.7-0.6-3.2-0.6h-5.8c-0.9,0-1.4,0.1-1.7,0.3c-0.3,0.2-0.4,0.5-0.4,1.1l0,0.9v9.7c0,1.5,0.3,2.4,0.8,2.8
		c0.5,0.4,1.9,0.6,4.1,0.6c6.9,0,11.3-1.6,13.3-4.7c0.2-0.3,0.4-0.5,0.6-0.5c0.3,0,0.5,0.2,0.5,0.7c0,1.1-0.6,2.5-1.9,4.1
		c-1.6,1.9-3.5,2.8-5.9,2.8c-0.5,0-1.2,0-2.1-0.1c-3.4-0.3-6.1-0.5-8.3-0.5c-3.1,0-5.2,0.1-6.5,0.3c-0.7,0.1-1.1,0.2-1.4,0.2
		c-0.6,0-0.8-0.2-0.8-0.6c0-0.3,0.2-0.5,0.7-0.6l1-0.3c1.3-0.4,1.9-1.6,1.9-3.7l0-1.7v-22.3c0-2.5-0.3-4.2-0.8-5.1s-1.6-1.3-3.2-1.3
		c-0.5,0-0.8-0.2-0.8-0.5c0-0.5,0.4-0.7,1.2-0.7c0.4,0,1,0,1.8,0.1c2.5,0.3,5.5,0.4,9.1,0.4c2.1,0,4,0,5.7-0.1l3.7-0.2
		c1,0,1.7-0.1,1.9-0.1c0.5-0.1,0.8-0.1,1.1-0.1c0.6,0,0.9,0.2,0.9,0.8c0,0.2,0,0.4-0.1,0.6c-0.1,0.2-0.1,0.9-0.2,2.1l-0.1,1.6
		c-0.1,1-0.2,1.7-0.3,1.9c-0.1,0.2-0.3,0.4-0.6,0.4c-0.3,0-0.5-0.2-0.5-0.8v-0.7c0-0.6-0.1-1.1-0.3-1.6c-0.3-0.8-1-1.3-2-1.6
		s-2.9-0.4-5.6-0.4h-4.1c-1.1,0-1.8,0.1-2.1,0.4C237.3,118.6,237.2,119.2,237.1,120.2L237.1,120.2z"/>
	<path d="M292.2,136.9v-13.7c0-2.2-0.3-3.8-1-4.8s-1.7-1.6-3.2-1.7c-0.5-0.1-0.8-0.2-0.8-0.6c0-0.4,0.2-0.6,0.5-0.5
		c0.4,0,1,0.1,1.7,0.2c0.7,0.1,1.5,0.2,2.4,0.2c2,0,3.2,0,3.6-0.1c0.6-0.1,1-0.1,1.2-0.1c0.3,0,0.5,0.2,0.5,0.5
		c0,0.3-0.2,0.5-0.5,0.6c-1.1,0.4-1.8,1.1-2.1,1.8s-0.5,2.3-0.5,4.5v13.1c0,4.8-1,8.5-2.9,11.1c-1.2,1.6-3,2.9-5.2,3.9
		c-2.3,1-4.7,1.5-7.2,1.5c-3,0-5.7-0.6-8.1-1.7s-4.1-2.7-5.2-4.7c-1.2-2.3-1.9-5.3-1.9-8.9V124l0-1.5c0-1.9-0.3-3.2-0.8-3.9
		s-1.6-1.2-3.1-1.4c-0.5-0.1-0.7-0.2-0.7-0.5c0-0.4,0.3-0.6,1-0.6c0.4,0,1,0,1.8,0.1c0.8,0.1,1.4,0.1,1.8,0.1l2,0h2
		c0.2,0,0.7,0,1.5-0.1c0.6-0.1,1.1-0.1,1.3-0.1c0.4,0,0.6,0.1,0.6,0.4c0,0.3-0.3,0.5-0.8,0.6c-1,0.2-1.7,0.7-2,1.3s-0.5,1.8-0.5,3.5
		l0,1.7v13.3c0,4.5,0.7,7.8,2.1,9.7c2,2.7,5.3,4.1,10,4.1c4.2,0,7.3-1.1,9.4-3.4C291.2,144.9,292.3,141.5,292.2,136.9L292.2,136.9z"
		/>
	<path d="M327.3,118.8h-7.4c-0.8,0-1.3,0.1-1.5,0.3s-0.3,0.7-0.3,1.6v25.9l0,1c0.1,2.1,1.2,3.3,3.5,3.7c0.6,0.1,0.9,0.3,0.9,0.6
		c0,0.4-0.2,0.6-0.7,0.6c-0.2,0-0.6-0.1-1.3-0.2c-0.3-0.1-1.1-0.1-2.4-0.1l-1.9,0l-2.1,0c-0.7,0-1.4,0-1.9,0.1
		c-1,0.1-1.6,0.2-1.8,0.2c-0.5,0-0.8-0.2-0.8-0.6c0-0.3,0.3-0.4,0.9-0.5c1.4-0.2,2.3-0.6,2.7-1.1s0.7-1.6,0.7-3.1V121l0-0.7
		c0-0.6-0.1-1-0.3-1.2c-0.2-0.2-0.6-0.3-1.3-0.3h-7c-1.4,0-2.5,0.3-3.1,0.9s-1.1,1.7-1.5,3.2c-0.2,0.7-0.4,1-0.7,1
		c-0.3,0-0.5-0.2-0.5-0.7c0-0.4,0.1-1,0.3-2c0.3-1.3,0.4-2.3,0.4-3.1s0.1-1.3,0.3-1.6s0.6-0.4,1.2-0.4h28.4c1,0,1.5,0.1,1.8,0.3
		s0.3,0.8,0.3,1.9s0,1.8,0.1,2.3c0.1,0.6,0.1,1,0.2,1.3c0,0.5-0.2,0.8-0.5,0.8c-0.3,0-0.5-0.2-0.6-0.8c-0.2-1.2-0.6-2.1-1.1-2.4
		S328.8,118.8,327.3,118.8L327.3,118.8z"/>
	<path d="M343.4,123.8v19.8c0,2.5,0.1,4.1,0.5,4.9c0.4,0.9,0.8,1.5,1.3,1.9c0.5,0.4,1.3,0.6,2.4,0.8c0.9,0.1,1.3,0.3,1.3,0.6
		c0,0.4-0.3,0.6-0.8,0.6c-0.3,0-0.6,0-1-0.1c-0.5-0.1-1.5-0.1-2.8-0.1l-3.8-0.1l-3.1,0.2c-0.5,0.1-0.9,0.1-1.3,0.1
		c-0.5,0-0.7-0.2-0.7-0.5c0-0.3,0.3-0.5,0.8-0.6c1.3-0.2,2.2-0.7,2.6-1.4s0.6-2.2,0.6-4.4v-22.6c0-2.2-0.2-3.7-0.8-4.4
		c-0.5-0.8-1.6-1.3-3.2-1.5c-0.5-0.1-0.8-0.3-0.8-0.6c0-0.4,0.2-0.6,0.8-0.6c0.1,0,0.3,0,0.5,0c1.3,0.2,3,0.2,5.1,0.2
		c1.3,0,2.4,0,3.4-0.1l1.8-0.2c0.3,0,0.5,0,0.7,0c0.5,0,0.7,0.2,0.7,0.5s-0.2,0.5-0.7,0.7l-1.4,0.5
		C344.1,117.9,343.4,120,343.4,123.8L343.4,123.8z"/>
	<path d="M385.2,119.1l0.8,6.3l0.1,0.7l-0.1,0.3c-0.1,0.2-0.2,0.2-0.4,0.3c-0.2,0-0.5-0.3-1-1.1c-3.3-5.8-7.8-8.6-13.4-8.6
		c-4.5,0-8,1.4-10.6,4.1s-3.9,6.5-3.9,11.3c0,5.5,1.4,10,4.3,13.5c2.9,3.5,6.6,5.2,11.1,5.2c2.6,0,5.2-0.7,7.8-2.1
		c2.5-1.4,4.3-3.1,5.3-5.1c0.5-0.9,0.8-1.4,1-1.4c0.3,0,0.4,0.1,0.4,0.5l0,0.3l-0.1,0.6L386,147l-0.1,0.5c-0.1,0.5-0.5,0.9-1.2,1.4
		c-4.1,2.6-8.5,3.9-13.4,3.9c-5.7,0-10.2-1.7-13.7-5s-5.2-7.8-5.2-13.2s1.8-10,5.4-13.7c3.6-3.6,8.1-5.4,13.5-5.4
		c3.7,0,7.1,0.8,10.2,2.5l1,0.6l0.4,0.2l0.5,0.2c0.1,0,0.2-0.1,0.4-0.2c0.4-0.3,0.6-0.4,0.8-0.4
		C384.9,118.1,385.1,118.4,385.2,119.1L385.2,119.1z"/>
	<path d="M402.3,115.4c1.9,0,3.5,0.3,4.8,0.8l1.8,0.8c0.2,0.1,0.3,0.1,0.5,0.1c0.2,0,0.4-0.1,0.6-0.3l0.4-0.3c0-0.1,0.1-0.1,0.3-0.1
		c0.4,0,0.7,0.4,0.7,1.3c0,0.3,0.1,1.2,0.3,2.7l0.4,2.7c0.1,0.6,0.1,0.9,0.1,1.1c0,0.5-0.2,0.8-0.6,0.8c-0.3,0-0.6-0.4-0.9-1.3
		c-0.6-1.9-1.9-3.5-3.9-4.7c-1.9-1.2-4.1-1.8-6.5-1.8c-1.9,0-3.5,0.6-4.8,1.7c-1.3,1.1-1.9,2.5-1.9,4.2c0,1.5,0.4,2.8,1.2,3.8
		c0.7,0.9,1.5,1.6,2.4,2c0.9,0.4,3,1.2,6.3,2.3c6.5,2.1,9.7,5.6,9.7,10.5c0,3.3-1.2,6-3.6,8.1c-2.4,2.1-5.5,3.1-9.2,3.1
		c-1.4,0-2.8-0.2-4.5-0.6s-2.8-0.8-3.6-1.3c-0.3-0.2-0.5-0.4-0.6-0.7s-0.3-0.9-0.5-1.8c0-0.1-0.2-0.9-0.7-2.4
		c-0.5-1.6-0.7-2.7-0.7-3.4c0-0.5,0.2-0.8,0.5-0.8c0.3,0,0.6,0.4,0.9,1.3c0.6,2.2,2,4,4,5.5c2,1.5,4.2,2.2,6.6,2.2s4.5-0.7,6.1-2.1
		c1.7-1.4,2.5-3.2,2.5-5.2s-0.8-3.6-2.3-4.9c-0.8-0.7-3.1-1.7-6.9-2.9c-3.9-1.3-6.7-2.8-8.3-4.4s-2.4-3.7-2.4-6.2
		c0-2.8,1.1-5.2,3.2-7C396.2,116.3,399,115.4,402.3,115.4L402.3,115.4z"/>
</g>
<path d="M330.6,28c-21.8,0-39.5,17.7-39.5,39.5s17.7,39.5,39.5,39.5s39.5-17.7,39.5-39.5S352.5,28,330.6,28z M330.6,93.5
	c-14.4,0-26-11.6-26-26s11.6-26,26-26s26,11.6,26,26S345,93.5,330.6,93.5z"/>
<radialGradient id="SVGID_1_" cx="330.61" cy="86.52" r="15" gradientTransform="matrix(1 0 0 -1 0 154)" gradientUnits="userSpaceOnUse">
	<stop  offset="0" style="stop-color:#EC2426"/>
	<stop  offset="0.15" style="stop-color:#EC292B"/>
	<stop  offset="0.34" style="stop-color:#ED393C"/>
	<stop  offset="0.57" style="stop-color:#EF5457"/>
	<stop  offset="0.8" style="stop-color:#F3797C"/>
	<stop  offset="1" style="stop-color:#F69EA1"/>
</radialGradient>
<circle class="st0" cx="330.6" cy="67.5" r="15"/>
</svg>
